<?xml version="1.0" encoding="utf-8"?>
<!-- Generator: Adobe Illustrator 20.1.0, SVG Export Plug-In . SVG Version: 6.00 Build 0)  -->
<svg version="1.1" id="Layer_1" xmlns="http://www.w3.org/2000/svg" xmlns:xlink="http://www.w3.org/1999/xlink" x="0px" y="0px"
	 viewBox="0 0 150 150" style="enable-background:new 0 0 150 150;" xml:space="preserve">
<style type="text/css">
	.st0{fill:#FFFFFF;}
	.st1{fill:#DF2127;}
</style>
<circle id="XMLID_96_" class="st0" cx="74.8" cy="74.8" r="74.1"/>
<path id="XMLID_13_" class="st1" d="M148.9,74.8c0,40.9-33.2,74.1-74.1,74.1S0.7,115.7,0.7,74.8c0-11.3,2.5-22,7-31.5
	c-3,7.6-4.4,15.1-4.4,22.2c0,33.6,27.1,38.4,38.6,38.3c17.5-0.2,38-8.7,55.3-24.7c0,0-2.2,12.5-2.9,16.4c-0.7,3.7,1.8,7,5.5,7.1h1.5
	c3.9,0,6.6-3.2,7.3-7.1l6.2-35c0.7-3.9-1.8-7-5.7-7h-35c-3.9,0-7.5,2.1-8.2,6c0,0.2-0.2,1.3-0.3,1.6c-0.6,3.7,2,6.5,5.8,6.5h18.3
	c-0.3,0.3-0.6,0.6-0.9,0.9c-12.6,11.9-28.1,18.5-41,18.5c-12.8,0-27.2-8.1-27.2-26.4c0-37.8,35.5-59.8,54.1-59.8
	C115.7,0.7,148.9,33.9,148.9,74.8z"/>
</svg>
