<svg id="Layer_1" data-name="Layer 1" xmlns="http://www.w3.org/2000/svg" width="257.2" height="62.1" viewBox="0 0 257.2 62.1">
  <defs>
    <style>
      .cls-1 {
        fill: #fff;
      }

      .cls-2 {
        fill: #fdbb30;
      }
    </style>
  </defs>
  <title>walmart_white</title>
  <path class="cls-1" d="M161.3,39.4c0-6.1-2.6-11.5-11.5-11.5a21,21,0,0,0-10.1,2.4l1.4,4.9a14.8,14.8,0,0,1,7.4-2.1c4.5,0,5.2,2.5,5.2,4.2v0.4c-9.8,0-16,3.4-16,10.3,0,4.2,3.2,8.2,8.6,8.2a9.8,9.8,0,0,0,7.9-3.5h0.2s1.1,4.7,7.3,2.9a39.6,39.6,0,0,1-.4-6.5V39.4Zm-7.3,6.5a4.8,4.8,0,0,1-5.1,4.9,3.3,3.3,0,0,1-3.6-3.6c0-3.7,4.1-4.7,8.8-4.7v3.4Z" transform="translate(-8.6 -6.5)"/>
  <path class="cls-1" d="M8.6,19.5L16.1,50c1.2,5,3.3,6.8,9.5,5.6l4-16.3c1-4,1.7-6.9,2.3-11h0.1a107.8,107.8,0,0,0,1.9,11l2.5,11.3c0.8,3.9,3.2,6.3,9.2,5l9.5-36H47.5L44.3,35.1c-0.9,4.5-1.7,8.1-2.3,12.2H41.9c-0.6-4.1-1.3-7.5-2.2-11.9L36.3,19.5h-8L24.7,35c-1,4.7-2,8.5-2.6,12.5H22c-0.6-3.8-1.5-8.5-2.4-13.1L16.7,19.5H8.6Z" transform="translate(-8.6 -6.5)"/>
  <path class="cls-1" d="M77.1,39.4c0-6.1-2.6-11.5-11.5-11.5a21,21,0,0,0-10.1,2.4l1.4,4.9a14.8,14.8,0,0,1,7.4-2.1c4.5,0,5.2,2.5,5.2,4.2v0.4c-9.8,0-16,3.4-16,10.3,0,4.2,3.2,8.2,8.6,8.2A9.8,9.8,0,0,0,70,52.7h0.2s1.1,4.7,7.3,2.9a39.6,39.6,0,0,1-.4-6.5V39.4Zm-7.3,6.5a4.8,4.8,0,0,1-5.1,4.9A3.3,3.3,0,0,1,61,47.2c0-3.7,4.1-4.7,8.8-4.7v3.4Z" transform="translate(-8.6 -6.5)"/>
  <polygon class="cls-1" points="80.6 41.4 80.6 13 73.3 13 73.3 49.1 80.6 49.1 80.6 41.4"/>
  <path class="cls-1" d="M185,19.5V46.1c0,3.7.7,6.2,2.2,7.8a8.1,8.1,0,0,0,6,2.3,17.4,17.4,0,0,0,5.3-.8V49.7a11.1,11.1,0,0,1-2.8.3c-2.5,0-3.3-1.6-3.3-4.9V34.9h6.4V28h-6.4V19.5H185Z" transform="translate(-8.6 -6.5)"/>
  <path class="cls-1" d="M166.1,28.5V55.6h7.6V41.7a10.3,10.3,0,0,1,.2-2,5.7,5.7,0,0,1,6-4.8l2.2,0.2V28l-1.7-.2a8,8,0,0,0-7.4,5.7h-0.2V28.5h-6.6Z" transform="translate(-8.6 -6.5)"/>
  <path class="cls-1" d="M94.4,28.5V55.6h7.4V39.7a6.4,6.4,0,0,1,.3-2.2,5,5,0,0,1,4.5-3.5c3,0,4.4,2.5,4.4,6.1V55.6h7.4V39.5a7.5,7.5,0,0,1,.3-2.2A4.6,4.6,0,0,1,123,34c3,0,4.5,2.5,4.5,6.7V55.6h7.4V39.6c0-8.4-4.3-11.7-9.1-11.7a9.8,9.8,0,0,0-5.3,1.5,11.4,11.4,0,0,0-3.4,3.4h-0.1a7.7,7.7,0,0,0-7.5-4.8,8.5,8.5,0,0,0-7.9,4.3h-0.1V28.5h-7Z" transform="translate(-8.6 -6.5)"/>
  <g>
    <g>
      <path class="cls-2" d="M238.2,27.4c1.5,0,2.7-.8,2.8-1.7l1.4-16.3c0-1.6-1.9-2.9-4.2-2.9S234,7.8,234,9.4l1.4,16.3c0.2,1,1.4,1.7,2.8,1.7h0Z" transform="translate(-8.6 -6.5)"/>
      <path class="cls-2" d="M229.4,32.5c0.7-1.3.7-2.7-.1-3.3L216,19.8c-1.4-.8-3.5.2-4.7,2.2s-1,4.3.4,5.1L226.5,34c0.9,0.3,2.2-.3,2.9-1.6h0Z" transform="translate(-8.6 -6.5)"/>
      <path class="cls-2" d="M247,32.5c0.7,1.3,2,1.9,2.9,1.6l14.8-6.9c1.4-.8,1.6-3.1.4-5.1s-3.3-3-4.7-2.2l-13.4,9.4c-0.8.6-.8,2-0.1,3.3h0Z" transform="translate(-8.6 -6.5)"/>
    </g>
    <g>
      <path class="cls-2" d="M238.2,47.7c1.5,0,2.7.8,2.8,1.7l1.4,16.3c0,1.6-1.9,2.9-4.2,2.9s-4.2-1.3-4.2-2.9l1.4-16.3c0.2-1,1.4-1.7,2.8-1.7h0Z" transform="translate(-8.6 -6.5)"/>
      <path class="cls-2" d="M247,42.6c0.7-1.3,2-1.9,2.9-1.6l14.8,6.9c1.4,0.8,1.6,3.1.4,5.1s-3.3,3-4.7,2.2l-13.4-9.4c-0.8-.6-0.8-2.1-0.1-3.3h0Z" transform="translate(-8.6 -6.5)"/>
      <path class="cls-2" d="M229.4,42.6c0.7,1.3.7,2.7-.1,3.3L216,55.3c-1.4.8-3.5-.2-4.7-2.2s-1-4.3.4-5.1L226.5,41c0.9-.3,2.2.3,2.9,1.6h0Z" transform="translate(-8.6 -6.5)"/>
    </g>
  </g>
</svg>
